<svg width="64" height="64" viewBox="0 0 64 64" fill="none" xmlns="http://www.w3.org/2000/svg">
<path d="M10.6666 30.6667L9.37325 30.9893C8.21944 31.2777 7.19514 31.9435 6.46313 32.8809C5.73113 33.8182 5.33343 34.9734 5.33325 36.1627V41.168C5.33343 42.3573 5.73113 43.5124 6.46313 44.4498C7.19514 45.3871 8.21944 46.0529 9.37325 46.3413L14.0133 47.5013C14.249 47.5601 14.4951 47.5643 14.7327 47.5138C14.9704 47.4632 15.1934 47.3592 15.3849 47.2096C15.5764 47.06 15.7313 46.8688 15.8378 46.6504C15.9444 46.4321 15.9998 46.1923 15.9999 45.9493V31.3813C15.9999 31.1381 15.9445 30.898 15.8378 30.6794C15.7311 30.4608 15.5759 30.2694 15.3841 30.1197C15.1923 29.9701 14.9689 29.8662 14.7309 29.8158C14.4929 29.7655 14.2465 29.7701 14.0106 29.8293L10.6666 30.6667ZM10.6666 30.6667V29.3333C10.6666 23.6754 12.9142 18.2492 16.915 14.2484C20.9158 10.2476 26.342 8 31.9999 8C37.6579 8 43.0841 10.2476 47.0849 14.2484C51.0856 18.2492 53.3333 23.6754 53.3333 29.3333V30.6667M53.3333 30.6667L54.6266 30.9893C55.7804 31.2777 56.8047 31.9435 57.5367 32.8809C58.2687 33.8182 58.6664 34.9734 58.6666 36.1627V41.168C58.6664 42.3573 58.2687 43.5124 57.5367 44.4498C56.8047 45.3871 55.7804 46.0529 54.6266 46.3413L53.3333 46.6667M53.3333 30.6667L49.9866 29.8293C49.7508 29.7706 49.5048 29.7664 49.2671 29.8169C49.0294 29.8675 48.8064 29.9715 48.6149 30.121C48.4234 30.2706 48.2686 30.4619 48.162 30.6802C48.0554 30.8986 48 31.1384 47.9999 31.3813V45.9493C48 46.1923 48.0554 46.4321 48.162 46.6504C48.2686 46.8688 48.4234 47.06 48.6149 47.2096C48.8064 47.3592 49.0294 47.4632 49.2671 47.5138C49.5048 47.5643 49.7508 47.5601 49.9866 47.5013L53.3333 46.6667M53.3333 46.6667V49.3333C53.3333 50.7478 52.7713 52.1044 51.7712 53.1046C50.771 54.1048 49.4144 54.6667 47.9999 54.6667H39.9999M39.9999 54.6667C39.9999 53.6058 39.5785 52.5884 38.8283 51.8382C38.0782 51.0881 37.0608 50.6667 35.9999 50.6667H27.9999C26.9391 50.6667 25.9216 51.0881 25.1715 51.8382C24.4213 52.5884 23.9999 53.6058 23.9999 54.6667C23.9999 55.7275 24.4213 56.7449 25.1715 57.4951C25.9216 58.2452 26.9391 58.6667 27.9999 58.6667H35.9999C37.0608 58.6667 38.0782 58.2452 38.8283 57.4951C39.5785 56.7449 39.9999 55.7275 39.9999 54.6667Z" stroke="#16277C" stroke-opacity="0.76" stroke-width="4"/>
</svg>
