<svg width="64" height="64" viewBox="0 0 64 64" fill="none" xmlns="http://www.w3.org/2000/svg">
<path d="M21.3333 32H21.3599M31.9999 32H32.0266M42.6666 32H42.6933M21.0666 53.3333C26.1561 55.9441 32.0108 56.6513 37.5756 55.3274C43.1404 54.0035 48.0494 50.7355 51.4179 46.1124C54.7865 41.4894 56.393 35.8152 55.9481 30.1124C55.5032 24.4096 53.0361 19.0532 48.9914 15.0085C44.9467 10.9637 39.5903 8.49663 33.8875 8.05174C28.1847 7.60685 22.5105 9.21342 17.8874 12.582C13.2644 15.9505 9.99643 20.8595 8.67251 26.4243C7.3486 31.9891 8.05576 37.8438 10.6666 42.9333L5.33325 58.6666L21.0666 53.3333Z" stroke="#16277C" stroke-opacity="0.76" stroke-width="5.33333" stroke-linecap="round" stroke-linejoin="round"/>
</svg>
