<svg width="64" height="64" viewBox="0 0 64 64" fill="none" xmlns="http://www.w3.org/2000/svg">
<path d="M62.6666 45.3333L49.3333 58.6666L39.9999 49.3333L43.9999 45.3333L49.3333 50.6666L58.6666 41.3333L62.6666 45.3333ZM34.9333 53.0666C33.8666 53.3333 33.0666 53.3333 31.9999 53.3333C20.2666 53.3333 10.6666 43.7333 10.6666 31.9999C10.6666 20.2666 20.2666 10.6666 31.9999 10.6666C43.7333 10.6666 53.3333 20.2666 53.3333 31.9999C53.3333 33.0666 53.3333 33.8666 53.0666 34.9333C54.9333 35.1999 56.5333 35.7333 58.1333 36.5333C58.3999 34.9333 58.6666 33.5999 58.6666 31.9999C58.6666 17.3333 46.6666 5.33325 31.9999 5.33325C17.3333 5.33325 5.33325 17.3333 5.33325 31.9999C5.33325 46.6666 17.3333 58.6666 31.9999 58.6666C33.5999 58.6666 35.1999 58.3999 36.5333 58.1333C35.7333 56.7999 35.1999 54.9333 34.9333 53.0666ZM41.5999 37.5999L33.3333 32.7999V18.6666H29.3333V34.6666L38.6666 40.2666C39.4666 39.1999 40.5333 38.3999 41.5999 37.5999Z" fill="#16277C" fill-opacity="0.76"/>
</svg>
