<svg width="64" height="64" viewBox="0 0 64 64" fill="none" xmlns="http://www.w3.org/2000/svg">
<path d="M25.3333 33.0665L29.1439 37.3332L38.6666 26.6665" stroke="#16277C" stroke-opacity="0.76" stroke-width="4" stroke-linecap="round" stroke-linejoin="round"/>
<path d="M8 27.7786C8 19.2506 8 14.9866 9.008 13.5519C10.0133 12.1199 14.0213 10.7466 22.04 8.00259L23.568 7.47992C27.7467 6.04792 29.8347 5.33325 32 5.33325C34.1653 5.33325 36.2533 6.04792 40.432 7.47992L41.96 8.00259C49.9787 10.7466 53.9867 12.1199 54.992 13.5519C56 14.9866 56 19.2533 56 27.7786V31.9759C56 38.6559 53.768 43.8079 50.6667 47.7439M8.51467 37.3333C10.8 48.7946 20.2027 54.7013 26.3973 57.4053C28.32 58.2453 29.2827 58.6666 32 58.6666C34.72 58.6666 35.68 58.2453 37.6027 57.4053C39.1467 56.7333 40.8853 55.8586 42.6667 54.7546" stroke="#16277C" stroke-opacity="0.76" stroke-width="4" stroke-linecap="round"/>
</svg>
